<svg id="Layer_1" data-name="Layer 1" xmlns="http://www.w3.org/2000/svg" xmlns:xlink="http://www.w3.org/1999/xlink" viewBox="0 0 427.19 83.35"><defs><clipPath id="clip-path" transform="translate(-0.92 -0.15)"><rect x="0.92" y="0.15" width="117.84" height="83.35" fill="none"/></clipPath></defs><g clip-path="url(#clip-path)"><path d="M101.15,64.83c4.33,1.23,8.54,2.55,12.87,3.73a4.2,4.2,0,1,1-2.64,8l-15.7-5.29a.61.61,0,0,0-.69.16,44.49,44.49,0,0,1-12.7,7.78C66.72,85.43,48.41,85,33.4,77.37a39.23,39.23,0,0,1-8.59-5.84.85.85,0,0,0-1-.21c-5.24,1.79-10.5,3.53-15.74,5.32a4,4,0,0,1-4.71-1.72,4,4,0,0,1,2.09-6.09c4.34-1.37,8.7-2.66,13.05-4l-1.34-2.57a1,1,0,0,0-1-.55c-3.72,0-7.44,0-11.16,0C2,61.79.75,59.22.94,57a3.85,3.85,0,0,1,3.93-3.88c3.33,0,6.63,0,10,0a27,27,0,0,1,5.86-17,.78.78,0,0,0,.14-.85C18.39,29,13.66-1.31,25.26.2a16.76,16.76,0,0,1,7.16,3c6.78,4.42,12.11,10.52,17,16.85a.78.78,0,0,0,.6.24,58.19,58.19,0,0,1,11.79-.68c2.29.11,4.58.37,6.86.68a1.78,1.78,0,0,0,2-.79C75.21,13.36,88.79-1.73,97,.65c7.93,3.39,4.37,26.44,2.27,33.23-.75,1.88-.7,2,.62,3.51,3.42,4.6,4.75,10.08,5,15.75h9.5a4.15,4.15,0,0,1,4.21,5.51,3.71,3.71,0,0,1-3.81,3q-5.67,0-11.32,0a1,1,0,0,0-1,.55c-.43.86-.88,1.7-1.34,2.59m-14-15.74a7,7,0,0,0-7-7.07c-9.37.23-9.38,13.83-.06,14.14a7.06,7.06,0,0,0,7.09-7.07m-54.66,0a7.05,7.05,0,0,0,7.08,7.08c9.32-.3,9.32-13.9,0-14.14a7,7,0,0,0-7,7.06" transform="translate(-0.92 -0.15)"/></g><rect width="117.84" height="83.35" fill="none"/><path d="M188.35,41.82c0,15.62-9.87,25.06-26.64,25.06H146.8V16.54h14.91C178.48,16.54,188.35,26.05,188.35,41.82ZM161.71,62.7c14.25,0,21.53-7.92,21.53-20.88s-7.28-21.1-21.53-21.1h-9.87v42Z" transform="translate(-0.92 -0.15)"/><path d="M212.75,16.54c11.67,0,17.14,6.34,17.14,14.62,0,6.91-3.89,12.75-12.38,14.33l13,21.39h-6.05L212,45.85h-9.29v21h-5V16.54Zm0,4.25H202.67v21h10.16c8.2,0,11.88-4.47,11.88-10.59C224.71,24.83,221.25,20.79,212.75,20.79Z" transform="translate(-0.92 -0.15)"/><path d="M285.4,31.23h-5.9c-2.81-6.48-8.93-10.65-17-10.65-11.16,0-19.73,8.06-19.73,21.09s8.57,21.17,19.73,21.17c10.58,0,18.36-7.12,19.15-18.57H260.49V40.16H287v3.67c-.79,13.33-10.73,23.55-24.48,23.55-14.12,0-24.92-10.58-24.92-25.71S248.39,16,262.51,16C273.31,16,281.8,21.66,285.4,31.23Z" transform="translate(-0.92 -0.15)"/><path d="M325.36,54.92H302.47l-4.4,12h-5.33l18.37-49.69h5.68l18.29,49.69h-5.32ZM313.91,23.53,304,50.75h19.87Z" transform="translate(-0.92 -0.15)"/><path d="M339.54,16.54h33v4.18h-14V66.88h-5.05V20.72h-14Z" transform="translate(-0.92 -0.15)"/><path d="M403.19,67.38c-14.11,0-24.91-10.58-24.91-25.71S389.08,16,403.19,16s24.92,10.66,24.92,25.7S417.38,67.38,403.19,67.38Zm0-4.39c11.16,0,19.73-8.14,19.73-21.32s-8.57-21.24-19.73-21.24-19.73,8.07-19.73,21.24S392,63,403.19,63Z" transform="translate(-0.92 -0.15)"/></svg>